<svg xmlns="http://www.w3.org/2000/svg" viewBox="0 0 32 32" role="img" aria-label="AutoParts">
  <defs>
    <linearGradient id="ap-bg" x1="0" y1="0" x2="32" y2="32">
      <stop offset="0%" stop-color="#2563eb"/>
      <stop offset="100%" stop-color="#1e40af"/>
    </linearGradient>
  </defs>
  <rect width="32" height="32" rx="8" fill="url(#ap-bg)"/>
  <g fill="#fff" transform="translate(8 8)">
    <path d="M8 4.754a3.246 3.246 0 1 0 0 6.492 3.246 3.246 0 0 0 0-6.492zM5.754 8a2.246 2.246 0 1 1 4.492 0 2.246 2.246 0 0 1-4.492 0z"/>
    <path d="M9.796 1.343c-.527-1.79-3.065-1.79-3.592 0l-.094.319a.873.873 0 0 1-1.255.52l-.292-.16c-1.608-.929-3.52.969-2.59 2.577l.292.16a.873.873 0 0 1-.52 1.255l-.319.094c-1.79.527-1.79 3.065 0 3.592l.319.094a.873.873 0 0 1 .52 1.255l-.16.292c-.929 1.608.969 3.52 2.577 2.59l.16-.292a.873.873 0 0 1 1.255-.52l.094.319c.527 1.79 3.065 1.79 3.592 0l.094-.319a.873.873 0 0 1 1.255-.52l.292.16c1.608.929 3.52-.969 2.59-2.577l-.292-.16a.873.873 0 0 1 .52-1.255l.319-.094c1.79-.527 1.79-3.065 0-3.592l-.319-.094a.873.873 0 0 1-.52-1.255l.16-.292c.929-1.608-.969-3.52-2.577-2.59l-.16.292a.873.873 0 0 1-1.255.52l-.094-.319z"/>
  </g>
</svg>
